<svg xmlns="http://www.w3.org/2000/svg" xmlns:xlink="http://www.w3.org/1999/xlink" id="Icon" x="0" y="0" version="1.1" viewBox="0 0 500 500" xml:space="preserve" style="enable-background:new 0 0 500 500"><style type="text/css">.st0{fill:url(#SVGID_1_)}.st1{fill:url(#SVGID_2_)}.st2{fill:url(#SVGID_3_)}.st3{fill:url(#SVGID_4_)}.st4{opacity:.9;fill:url(#SVGID_5_)}.st5{fill:none}.st6{opacity:.9;fill:url(#SVGID_6_)}</style><g><g><linearGradient id="SVGID_1_" x1="348.531" x2="137.626" y1="82.379" y2="447.678" gradientUnits="userSpaceOnUse"><stop offset="0" style="stop-color:#ff980e"/><stop offset=".207" style="stop-color:#ff7139"/><stop offset=".363" style="stop-color:#ff5854"/><stop offset=".456" style="stop-color:#ff4f5e"/><stop offset=".693" style="stop-color:#ff3750"/><stop offset=".858" style="stop-color:#f92261"/><stop offset="1" style="stop-color:#f5156c"/></linearGradient><path d="M429.1,119.2l-45.3-25.9L280.6,34.1c0,0,0,0,0,0l-3.2-1.9c-16.9-9.7-37.8-9.7-54.7,0l-3.3,1.9c0,0,0,0,0,0 L74.2,117.3l0,0l-3.3,1.9c-16.9,9.7-27.3,27.6-27.3,47v3.7v166.4v3.7c0,19.3,10.5,37.3,27.3,47l148.5,85c3.6,2.1,7.5,3,11.4,3 c7.9,0,15.5-4.1,19.8-11.3c6.3-10.8,2.6-24.6-8.3-30.9L96.9,349.7c-4.8-2.8-7.8-7.9-7.8-13.4V169.9c0-5.5,3-10.7,7.8-13.4 l25.7-14.7l119.6-68.5c4.8-2.7,10.8-2.7,15.6,0l145.3,83.2c4.8,2.8,7.8,7.9,7.8,13.4v166.4c0,5.5-3,10.7-7.8,13.4l-49.1,28.1 l-24.8-37.4c24.1-21.5,39.3-52.7,39.3-87.4c0-64.8-53.1-117.5-118.5-117.5S131.5,188.2,131.5,253S184.7,370.5,250,370.5 c14,0,27.5-2.4,40-6.9l37.7,56.8c0.6,0.9,1.2,1.7,1.9,2.5c0.1,0.1,0.3,0.3,0.4,0.4c0.8,0.9,1.7,1.6,2.6,2.4 c0.2,0.2,0.4,0.4,0.7,0.5c1,0.7,2.1,1.4,3.2,2c0.3,0.1,0.5,0.2,0.8,0.3c1,0.5,2,0.8,3.1,1.1c0.2,0.1,0.5,0.2,0.7,0.2 c1.2,0.3,2.4,0.5,3.6,0.6c0.3,0,0.7,0,1,0.1c0.3,0,0.7,0.1,1,0.1c0.7,0,1.4-0.1,2.1-0.1c0.3,0,0.6,0,0.9-0.1 c1.3-0.2,2.6-0.5,3.8-0.9c0.3-0.1,0.7-0.2,1-0.4c1-0.4,1.9-0.8,2.9-1.3c0.2-0.1,0.4-0.2,0.6-0.3l71-40.7 c16.9-9.7,27.3-27.7,27.3-47v-3.7V169.9v-3.7C456.4,146.8,446,128.8,429.1,119.2z M177.1,253c0-39.9,32.7-72.3,72.9-72.3 s72.9,32.4,72.9,72.3s-32.7,72.3-72.9,72.3S177.1,292.9,177.1,253z" class="st0"/><linearGradient id="SVGID_2_" x1="348.531" x2="137.626" y1="82.379" y2="447.678" gradientUnits="userSpaceOnUse"><stop offset="0" style="stop-color:#fff44f;stop-opacity:.8"/><stop offset=".75" style="stop-color:#fff44f;stop-opacity:0"/></linearGradient><path d="M429.1,119.2l-45.3-25.9L280.6,34.1c0,0,0,0,0,0l-3.2-1.9c-16.9-9.7-37.8-9.7-54.7,0l-3.3,1.9c0,0,0,0,0,0 L74.2,117.3l0,0l-3.3,1.9c-16.9,9.7-27.3,27.6-27.3,47v3.7v166.4v3.7c0,19.3,10.5,37.3,27.3,47l148.5,85c3.6,2.1,7.5,3,11.4,3 c7.9,0,15.5-4.1,19.8-11.3c6.3-10.8,2.6-24.6-8.3-30.9L96.9,349.7c-4.8-2.8-7.8-7.9-7.8-13.4V169.9c0-5.5,3-10.7,7.8-13.4 l25.7-14.7l119.6-68.5c4.8-2.7,10.8-2.7,15.6,0l145.3,83.2c4.8,2.8,7.8,7.9,7.8,13.4v166.4c0,5.5-3,10.7-7.8,13.4l-49.1,28.1 l-24.8-37.4c24.1-21.5,39.3-52.7,39.3-87.4c0-64.8-53.1-117.5-118.5-117.5S131.5,188.2,131.5,253S184.7,370.5,250,370.5 c14,0,27.5-2.4,40-6.9l37.7,56.8c0.6,0.9,1.2,1.7,1.9,2.5c0.1,0.1,0.3,0.3,0.4,0.4c0.8,0.9,1.7,1.6,2.6,2.4 c0.2,0.2,0.4,0.4,0.7,0.5c1,0.7,2.1,1.4,3.2,2c0.3,0.1,0.5,0.2,0.8,0.3c1,0.5,2,0.8,3.1,1.1c0.2,0.1,0.5,0.2,0.7,0.2 c1.2,0.3,2.4,0.5,3.6,0.6c0.3,0,0.7,0,1,0.1c0.3,0,0.7,0.1,1,0.1c0.7,0,1.4-0.1,2.1-0.1c0.3,0,0.6,0,0.9-0.1 c1.3-0.2,2.6-0.5,3.8-0.9c0.3-0.1,0.7-0.2,1-0.4c1-0.4,1.9-0.8,2.9-1.3c0.2-0.1,0.4-0.2,0.6-0.3l71-40.7 c16.9-9.7,27.3-27.7,27.3-47v-3.7V169.9v-3.7C456.4,146.8,446,128.8,429.1,119.2z M177.1,253c0-39.9,32.7-72.3,72.9-72.3 s72.9,32.4,72.9,72.3s-32.7,72.3-72.9,72.3S177.1,292.9,177.1,253z" class="st1"/><linearGradient id="SVGID_3_" x1="349.334" x2="349.334" y1="489.616" y2="55.018" gradientUnits="userSpaceOnUse"><stop offset="0" style="stop-color:#3a8ee6"/><stop offset=".236" style="stop-color:#5c79f0"/><stop offset=".629" style="stop-color:#9059ff"/><stop offset="1" style="stop-color:#c139e6"/></linearGradient><path d="M429.1,119.2l-45.3-25.9c0,0-37.5-21.5-63.1-36.1c-14.5-8.3-32.2-8.6-47-0.7l-31.6,16.8 c4.8-2.7,10.8-2.7,15.6,0l145.3,83.2c4.8,2.8,7.8,7.9,7.8,13.4v166.4c0,5.5-3,10.7-7.8,13.4l-49.2,28.1l7.7,12.3 c9.1,14.6,28.3,19.3,43.2,10.8l24.3-13.9c16.9-9.7,27.3-27.6,27.3-47V166.1C456.4,146.8,446,128.8,429.1,119.2z" class="st2"/><linearGradient id="SVGID_4_" x1="275.442" x2="468.567" y1="38.972" y2="232.097" gradientUnits="userSpaceOnUse"><stop offset="0" style="stop-color:#6e008b;stop-opacity:.5"/><stop offset=".5" style="stop-color:#c846cb;stop-opacity:0"/></linearGradient><path d="M410.9,169.9v80.7h45.6v-84.5c0-19.4-10.4-37.3-27.3-47l-45.3-25.9c0,0-37.5-21.5-63.1-36.1 c-14.5-8.3-32.2-8.6-47-0.7l-31.6,16.8c4.8-2.7,10.8-2.7,15.6,0l145.3,83.2C407.9,159.2,410.9,164.3,410.9,169.9z" class="st3"/><linearGradient id="SVGID_5_" x1="469.727" x2="358.483" y1="276.88" y2="388.124" gradientUnits="userSpaceOnUse"><stop offset=".136" style="stop-color:#6a2bea;stop-opacity:0"/><stop offset=".299" style="stop-color:#662ce6;stop-opacity:9.459748e-02"/><stop offset=".469" style="stop-color:#592fdb;stop-opacity:.1926"/><stop offset=".641" style="stop-color:#4534c9;stop-opacity:.2923"/><stop offset=".815" style="stop-color:#283baf;stop-opacity:.393"/><stop offset=".989" style="stop-color:#03448d;stop-opacity:.4936"/><stop offset="1" style="stop-color:#00458b;stop-opacity:.5"/></linearGradient><path d="M410.9,263.6v72.6c0,5.5-3,10.7-7.8,13.4l-49.2,28.1l7.7,12.3c9.1,14.6,28.3,19.3,43.2,10.8l24.3-13.9 c16.9-9.7,27.3-27.6,27.3-47v-76.4H410.9z" class="st4"/><g><path d="M322.9,253c0-39.9-32.7-72.3-72.9-72.3s-72.9,32.4-72.9,72.3s32.7,72.3,72.9,72.3S322.9,292.9,322.9,253z" class="st5"/><linearGradient id="SVGID_6_" x1="302.968" x2="329.048" y1="347.759" y2="378.84" gradientUnits="userSpaceOnUse"><stop offset="0" style="stop-color:#960e18;stop-opacity:.6"/><stop offset=".168" style="stop-color:#a91522;stop-opacity:.4653"/><stop offset=".506" style="stop-color:#d9283c;stop-opacity:.1948"/><stop offset=".75" style="stop-color:#ff3750;stop-opacity:0"/></linearGradient><path d="M350.4,372.5l-21.3-32.1c-11.3,10.1-24.6,18-39.1,23.2l22.7,34.2C325.4,389.7,338,381.3,350.4,372.5z" class="st6"/></g></g></g></svg>