<svg xmlns="http://www.w3.org/2000/svg" xmlns:xlink="http://www.w3.org/1999/xlink" id="Layer_1" x="0" y="0" version="1.1" viewBox="0 0 68 68" xml:space="preserve" style="enable-background:new 0 0 68 68"><style type="text/css">.st0{fill:#fff}</style><g><rect width="68" height="68" y="0"/><path d="M57.9,42.6h3.9v6.4H49.5V32.4c0-5.1-1.7-7-5-7c-4,0-5.6,2.9-5.6,6.9v10.2h3.9v6.4H30.5V32.4c0-5.1-1.7-7-5-7 c-4,0-5.6,2.9-5.6,6.9v10.2h5.6v6.4H7.5v-6.4h3.9V26H7.5v-6.4h12.3v4.4c1.8-3.1,4.8-5,8.9-5c4.2,0,8.1,2,9.5,6.3 c1.6-3.9,4.9-6.3,9.5-6.3c5.3,0,10.1,3.2,10.1,10.1V42.6z" class="st0"/></g></svg>